<?xml version="1.0" encoding="utf-8"?>
<!DOCTYPE svg PUBLIC "-//W3C//DTD SVG 1.1//EN" "http://www.w3.org/Graphics/SVG/1.1/DTD/svg11.dtd">
<svg version="1.1" xmlns="http://www.w3.org/2000/svg" xmlns:xlink="http://www.w3.org/1999/xlink" x="0px" y="0px" width="1024px" height="1024px" viewBox="0 0 1024 1024" enable-background="new 0 0 1024 1024" xml:space="preserve">
<metadata> Free Icon Download -- www.onlinewebfonts.com </metadata>

  <path d="M442.397309 601.521896c-2.423189 23.455201-4.826935 45.347814-6.910387 67.26908-2.214435 23.296589-16.134469 30.584576-37.829584 30.007431-21.441335-0.569982-26.010397-13.739932-25.914206-31.15865 0.363274-65.280796 1.348718-130.562615 1.040702-195.838294-0.073678-15.743566 6.865361-18.111496 19.980054-17.71036 22.968108 0.701988 46.049802-0.979304 68.938092 0.541329 19.084661 1.267876 23.234167-6.617721 22.76754-23.974018-0.444115-16.515139-0.563842-27.832905-22.809495-27.058262-45.005007 1.567705-90.116437-0.184195-135.154189 0.782829-16.940834 0.363274-22.582321-5.111414-21.826098-22.052249 1.310855-29.371958 0.649799-58.833967 0.688685-88.258113 0.011256-8.18952 0.87288-15.697517-11.244089-18.086937-35.932374-7.087419-45.449121-0.051165-45.448098 36.2189 0 5.517667 0.14224 11.039427-0.024559 16.551978-0.721431 23.73968 7.208169 54.550407-4.708232 69.27476-12.55392 15.512299-44.651966 3.501754-68.13889 5.134951-1.830695 0.12689-3.721765 0.279363-5.509481-0.021489-21.938662-3.695159-20.199041 10.872628-20.569478 25.314549-0.397043 15.452947 0.331551 27.063379 21.26021 25.278733 19.171642-1.635243 38.615483 0.234337 57.896618-0.525979 14.202467-0.560772 20.535709 3.328815 17.198707 18.879999-4.041036 18.826787-5.229095 38.316677-9.951653 56.936757-17.280572 68.131727-53.195549 125.075647-107.827821 177.722704 0-56.374962 1.351787-106.59883-0.320295-156.722414-2.461051-73.821309 0.642636-145.778154 32.17684-215.060077 17.062608-37.486776 12.998035-38.402635-24.952298-52.738132-14.122649-5.334495-18.907629-2.592035-23.01825 11.332093-23.048949 78.069053-58.377572 150.301168-105.198947 216.934774-3.761674 5.352915-11.764951 11.05273-3.048429 18.752086 11.659551 10.298554 22.127973 25.603121 35.57831 29.011754 9.971096 2.526543 15.043624-17.7165 23.190165-27.083845 2.158153-2.481518 3.586688-6.661723 8.764618-3.595898 0 61.251016-0.001023 122.841769 0 184.433546 0 38.307468 0.151449 35.677571 37.874609 37.830607 27.910677 1.593288 13.141298-21.760606 22.316262-32.171724 9.93528 7.759731 19.110243 13.889335 27.015284 21.363564 9.800203 9.265014 15.858176 6.850012 24.506137-2.536776 62.035892-67.343781 102.536304-144.854109 115.321492-236.228189 2.148943-15.363919 1.545192-31.800263 10.583033-47.809889 10.379395 8.834202 6.714935 18.575054 6.744611 26.837228 0.204661 57.930387-0.178055 115.862821-0.211824 173.794232-0.048095 82.615603 9.662057 92.337012 91.294262 91.969645 60.830437-0.273223 78.199013-15.919575 84.555791-76.172867C497.127818 615.293551 497.128841 615.293551 442.397309 601.521896z" />
<path d="M994.049401 464.794885c-6.432503-0.029676-12.866029 0.076748-19.296485-0.021489-43.732014-0.665149-36.679387 5.805216-38.930661-37.58399-1.283226-24.727171 5.871731-35.768645 31.614022-31.301913 7.141654 1.239224 14.764262-0.500397 22.00313 0.416486 20.306488 2.571568 16.305361-11.706623 16.343223-23.00904 0.037862-11.397584 3.747347-24.465205-16.35141-23.483854-16.231683 0.793062-36.887119 7.198959-47.950082-3.105734-12.491499-11.634991-4.724605-33.119305-4.267187-50.075489 0.714268-26.415626-18.142196-17.051351-30.540573-18.293645-12.300141-1.232061-26.784016-3.871167-24.488741 17.656125 1.453095 13.625322 0.544399 27.547403 0.116657 41.318034-0.584308 18.804275-15.281031 11.187807-24.723078 12.276604-12.395308 1.429559-13.20679-6.277984-10.891048-15.830547 1.295506-5.338588 1.803066-10.864442 2.984984-16.235776 4.686742-21.292955-11.408841-19.189038-23.372314-19.74981-10.870582-0.509606-24.993231-9.201569-27.006074 14.145162-2.905166 33.689287-10.188037 67.033719-16.271592 100.403734-4.950755 27.151383-1.215688 32.29759 26.502607 33.31885 23.75196 0.87595 18.329461-19.586081 20.286022-31.249725 4.439102-26.455535 23.460318-16.759709 38.002522-18.192338 18.806321-1.852184 14.038738 12.497639 14.274098 22.496363 1.066285 45.223994 0.932232 45.227064-44.435025 45.223994-11.027148 0-22.150486 0.934279-33.059953-0.197498-20.523429-2.128477-18.774599 11.171434-18.952654 24.548092-0.183172 13.684674-1.211595 24.892947 19.147082 23.859407 32.995485-1.675152 66.138326-0.451278 99.218746-0.451278 0 0.079818 0 0.160659 0 0.240477 33.080419 0 66.163909 0.216941 99.240235-0.190335 6.326079-0.077771 14.374382 4.082992 17.896602-7.027044C1029.071032 479.68092 1019.525632 464.910519 994.049401 464.794885z" />
<path d="M373.86854 337.378937c15.169491 13.142322 29.6636 27.104311 45.307905 39.639812 6.194072 4.963035 11.135618 18.86465 21.516036 10.538007 11.765975-9.437953 20.770046-22.320355 30.962176-33.692357-2.709715-3.974521-3.768837-6.691399-5.742794-8.246825-25.77913-20.306488-51.763944-40.353057-77.496002-60.717873-4.872984-3.856841-7.79964-1.322112-11.56643 1.394766C352.367853 303.948547 351.577861 318.066079 373.86854 337.378937z" />
<path d="M753.055675 288.411689c-68.023256 0.558725-136.057769 0.063445-204.085118-0.431835-12.282744-0.089028-17.730826 3.15997-18.466584 16.899902-1.197268 22.352077 1.473561 38.098713 29.841655 32.778544 7.091512-1.330298 14.728446 0.561795 22.010293-0.130983 18.104333-1.723248 22.471804 5.91164 22.901593 23.77652 0.528026 21.935592-3.998057 33.17354-28.145014 28.940123-6.243191-1.094938-12.942777 0.569982-19.258623-0.299829-20.423145-2.813069-28.915563 3.081175-27.886117 26.15059 2.045589 45.87584 0.605797 91.907223 0.605797 137.874137-0.185218 0-0.37146 0-0.556679 0 0 45.963845-0.335644 91.931782 0.102331 137.892557 0.379647 39.928385 10.718109 51.801806 49.900503 53.06559 45.914726 1.479701 91.932806 1.602498 137.855718 0.402159 39.616276-1.034563 49.573045-12.589736 49.725518-52.569286 0.319272-83.660398 0.23536-167.32182 0.589424-250.982218 0.210801-49.835012 0.436952-49.67026-48.424896-51.662637-7.011694-0.286526-16.150842 4.527107-19.083637-8.924253-7.030114-32.245402 0.442068-42.923602 32.623002-42.86732 6.434549 0.011256 12.928451-0.418532 19.293415 0.282433 20.014846 2.204202 17.070794-12.079106 16.385179-23.462365C768.31624 304.047808 775.938848 288.224424 753.055675 288.411689zM645.691412 361.444029c-0.442068-7.495718-5.988388-22.467711 6.598278-21.785166 16.309454 0.884137 5.358031 17.539468 9.517771 26.422789-3.880377 7.980765 5.815449 24.752754-9.881045 22.759353C638.425938 387.125945 646.25116 370.928031 645.691412 361.444029zM591.96579 439.34526c12.700253 0.112564 12.503778 6.864338 11.758812 15.871479-2.445702 29.554106-2.848884 59.566654-24.11728 84.721567 0-28.332279 0.1361-56.665581-0.079818-84.995813C579.459965 446.045869 579.446662 439.234743 591.96579 439.34526zM719.504535 663.937434c-1.789763 19.201318 0.168846 37.375236-28.209482 35.889395-29.319769-1.534959-58.775638-0.706081-88.169085-0.49221-27.850301 0.202615-21.916149-20.128433-23.966854-36.924981-2.595105-21.246907 10.957563-18.473747 23.818475-18.308995 15.614629 0.200568 31.232328 0.048095 46.850028 0.064468 13.779841 0.017396 27.566846-0.26299 41.336454 0.096191C704.612359 644.611274 721.908281 638.150118 719.504535 663.937434zM710.583351 439.881472c9.635451 0.529049 8.837272 7.365758 8.91402 13.70207 0.122797 10.108219 0.032746 20.217461 0.048095 30.326702 0.01535 8.271384 0.64673 16.606213-0.185218 24.792663-0.663102 6.525624 4.354168 16.943904-5.54939 18.569938-11.19804 1.837858-12.602016-8.566096-12.782118-16.899902-0.416486-19.288299-0.128937-38.591947-0.140193-57.890478C700.883432 445.790042 700.766775 439.34219 710.583351 439.881472zM703.102983 565.930283c13.268188 2.162246 16.615423 6.379291 16.282848 18.749016-0.381693 14.21884-9.408277 13.338796-18.823718 13.280468-29.424146-0.184195-58.84727-0.416486-88.271416-0.50142-34.485419-0.100284-34.485419-0.041956-31.151487-36.915771 39.189557 15.125489 40.697911 14.509459 52.197826-28.616758 6.881734-25.808806 9.931187-52.283784 11.689227-78.918397 0.323365-4.90573-1.89107-12.171204 6.334265-12.715603 9.797134-0.647753 8.856715 7.137561 8.904811 13.404288 0.158612 20.22974-0.370437 40.4779 0.26299 60.690244C661.495353 545.256428 673.41687 561.093115 703.102983 565.930283z" />
<path d="M990.544577 540.084639c-28.40391 0.87595-56.853869 0.25992-85.285408 0.25992 0-0.12075 0-0.2415 0-0.36225-29.345352 0-58.707077 0.558725-88.029916-0.25378-13.133112-0.364297-17.467837 3.895727-17.296945 17.125029 0.62831 48.598858 0.106424 97.211019 0.286526 145.818063 0.091074 24.700565 11.489682 39.862893 37.273928 42.00365 43.007513 3.570315 86.12145 4.287653 129.064494 0.610914 31.451316-2.692319 41.373293-13.935384 42.088584-46.255487 1.034563-46.75179 0.030699-93.548606 0.939395-140.305513C1009.870738 544.04074 1004.735788 539.647687 990.544577 540.084639zM954.75649 622.735034c-0.956791 5.341658-0.1361 11.001565-0.137123 16.514115 0.402159 68.347644 2.499937 60.028165-58.476833 60.219523-41.417295 0.128937-41.418318-0.005117-41.437761-43.560098-0.030699-68.333318 0.01842-66.835198 64.856124-68.932975C948.07737 586.052576 959.927256 593.868589 954.75649 622.735034z" />


</svg>