<?xml version="1.0" encoding="utf-8"?>
<!DOCTYPE svg PUBLIC "-//W3C//DTD SVG 1.1//EN" "http://www.w3.org/Graphics/SVG/1.1/DTD/svg11.dtd">
<svg version="1.1" xmlns="http://www.w3.org/2000/svg" xmlns:xlink="http://www.w3.org/1999/xlink" x="0px" y="0px" width="1024px" height="1024px" viewBox="0 0 1024 1024" enable-background="new 0 0 1024 1024" xml:space="preserve">
<metadata> Free Icon Download -- www.onlinewebfonts.com </metadata>

  <path d="M673.397144 376.241104c10.260992 0 20.401015 0.74716 30.462764 1.864341C676.499635 251.280442 540.253306 157.052945 384.737375 157.052945c-173.853362 0-316.283326 117.937361-316.283326 267.710837 0 86.442806 47.369918 157.444314 126.568834 212.506417l-31.651103 94.69714L273.958514 676.784267c39.556763 7.791807 71.307488 15.825552 110.778861 15.825552 9.919433 0 19.760592-0.512338 29.516361-1.266613-6.183635-21.055669-9.755769-43.100434-9.755769-65.970633C404.505083 487.852514 523.154025 376.241104 673.397144 376.241104zM503.336507 290.908363c23.816601 0 39.599458 15.583614 39.599458 39.286363 0 23.588895-15.789973 39.3931-39.599458 39.3931-23.695633 0-47.498002-15.804204-47.498002-39.3931C455.84562 306.491977 479.640874 290.908363 503.336507 290.908363zM281.992259 369.580709c-23.695633 0-47.618971-15.804204-47.618971-39.3931 0-23.695633 23.923338-39.286363 47.618971-39.286363 23.709864 0 39.478489 15.583614 39.478489 39.286363C321.470748 353.783621 305.702123 369.580709 281.992259 369.580709zM962.064028 621.594079c0-125.857253-126.533255-228.445822-268.650123-228.445822-150.470825 0-269.013029 102.588569-269.013029 228.445822 0 126.063611 118.535089 228.43159 269.013029 228.43159 31.508787 0 63.273743-7.884313 94.903499-15.782857l86.755901 47.270296-23.788138-78.650999C914.765269 755.449498 962.064028 692.609819 962.064028 621.594079zM606.202592 582.208096c-15.747278 0-31.643987-15.583614-31.643987-31.494555 0-15.704583 15.89671-31.48744 31.643987-31.48744 23.916223 0 39.592342 15.782857 39.592342 31.48744C645.80205 566.624481 630.12593 582.208096 606.202592 582.208096zM780.191154 582.208096c-15.669004 0-31.430513-15.583614-31.430513-31.494555 0-15.704583 15.761509-31.48744 31.430513-31.48744 23.695633 0 39.585226 15.782857 39.585226 31.48744C819.77638 566.624481 803.886786 582.208096 780.191154 582.208096z" />


</svg>